<svg id="Ebene_1" data-name="Ebene 1" xmlns="http://www.w3.org/2000/svg" viewBox="0 0 250 250"><defs><style>.cls-1{fill:#2e3192;}.cls-2{opacity:0.3;}.cls-3{fill:#ff0;}</style></defs><rect class="cls-1" width="250" height="250" rx="20"/><g class="cls-2"><path class="cls-3" d="M193.09,44.72l-26,13-13,26-13-26-26-13,26-13,13-26,13,26ZM240,107.22,224.34,115l-7.81,15.62L208.72,115l-15.63-7.82,15.63-7.81,7.81-15.62,7.81,15.62Z"/></g><path class="cls-3" d="M155.82,174.33l8.74,51.07a14.43,14.43,0,0,1,.15,1.86,11.23,11.23,0,0,1-11.23,11.23,13.3,13.3,0,0,1-5.18-1.27L102.5,213.1,56.7,237.22A11.21,11.21,0,0,1,40.44,225.4l8.79-51.07L12.17,138.2a11.21,11.21,0,0,1,6.2-19.14l51.17-7.48L92.44,65.1a11.21,11.21,0,0,1,20.12,0l22.9,46.48,51.17,7.48a11.24,11.24,0,0,1,6.25,19.14Z"/></svg>