<?xml version="1.0" standalone="no"?>
<!DOCTYPE svg PUBLIC "-//W3C//DTD SVG 20010904//EN"
 "http://www.w3.org/TR/2001/REC-SVG-20010904/DTD/svg10.dtd">
<svg version="1.0" xmlns="http://www.w3.org/2000/svg"
 width="700.000000pt" height="700.000000pt" viewBox="0 0 700.000000 700.000000"
 preserveAspectRatio="xMidYMid meet">
<metadata>
Created by potrace 1.11, written by Peter Selinger 2001-2013
</metadata>
<g transform="translate(0.000000,700.000000) scale(0.100000,-0.100000)"
fill="#000000" stroke="none">
<path d="M433 6985 c-204 -44 -385 -233 -422 -439 -15 -84 -15 -6008 0 -6092
34 -187 179 -353 375 -427 l59 -22 3055 0 3055 0 59 22 c150 57 263 157 326
286 21 45 43 109 49 141 15 84 15 6008 0 6092 -37 209 -219 395 -426 439 -99
21 -6034 21 -6130 0z m2572 -1665 c101 -49 105 -57 453 -766 178 -362 329
-664 335 -670 7 -6 339 -59 738 -117 557 -81 739 -111 778 -128 67 -28 143
-111 166 -180 23 -70 17 -178 -13 -241 -18 -35 -123 -144 -420 -435 -218 -213
-461 -451 -539 -528 l-141 -140 123 -715 c68 -393 124 -739 125 -767 1 -140
-97 -262 -241 -299 -111 -28 -140 -18 -514 181 -357 191 -978 515 -985 515 -8
0 -612 -317 -1030 -539 -294 -157 -316 -166 -401 -165 -62 0 -87 6 -132 28
-61 30 -115 83 -148 148 -43 84 -40 108 90 868 67 388 123 715 126 726 4 18
-91 115 -534 548 -412 401 -544 536 -562 573 -20 40 -24 63 -24 138 0 104 20
156 83 220 75 77 75 76 869 192 400 58 733 111 740 117 6 6 154 301 328 656
174 355 328 662 343 683 29 43 93 91 150 112 58 23 176 15 237 -15z"/>
</g>
</svg>
